<?xml version="1.0" encoding="utf-8"?>
<!-- Generator: Adobe Illustrator 26.4.1, SVG Export Plug-In . SVG Version: 6.00 Build 0)  -->
<svg version="1.1" id="Слой_2_00000128462363011548214070000017521366689967358099_"
	 xmlns="http://www.w3.org/2000/svg" xmlns:xlink="http://www.w3.org/1999/xlink" x="0px" y="0px" viewBox="0 0 388.2 388.2"
	 style="enable-background:new 0 0 388.2 388.2;" xml:space="preserve">
<style type="text/css">
	.st0{opacity:0.76;}
	.st1{fill:#D27567;}
	.st2{fill:#BD2B0E;}
	.st3{fill:#F6F6F6;}
	.st4{fill:#F6F6F6;stroke:#F6F6F6;stroke-width:0.25;stroke-miterlimit:10;}
</style>
<g class="st0">
	<path class="st1" d="M377.6,257.5c6.9-19.9,10.6-41.2,10.6-63.4C388.2,86.9,301.3,0,194.1,0S0,86.9,0,194.1
		c0,22.2,3.7,43.6,10.6,63.4H377.6z"/>
	<path class="st1" d="M59.7,334.1c34.9,33.5,82.2,54.1,134.4,54.1s99.5-20.6,134.4-54.1H59.7z"/>
</g>
<path class="st2" d="M122.4,308.1v-30.8h7.4c2.2,0,4,0.7,5.3,2s2,3,2,5.1c0,1.7-0.4,3.3-1.2,4.6s-1.9,2.2-3.3,2.8v0.1
	c1.8,0.2,3.2,1,4.2,2.4c1.1,1.3,1.6,3,1.6,5.2c0,2.6-0.8,4.8-2.4,6.4c-1.6,1.6-3.6,2.4-6,2.4h-7.6L122.4,308.1L122.4,308.1z
	 M125.5,280.5v9.9h3.1c1.7,0,3-0.5,3.9-1.4c1-1,1.4-2.3,1.4-4c0-3-1.7-4.5-5-4.5H125.5z M125.5,293.7v11.1h4.1
	c1.8,0,3.2-0.5,4.2-1.5s1.5-2.4,1.5-4.1c0-3.6-2.1-5.5-6.3-5.5H125.5z"/>
<path class="st2" d="M162.4,308.1h-13.8v-30.8h13.2v3.3h-10.1v10.2h9.4v3.2h-9.4v10.8h10.7L162.4,308.1L162.4,308.1z"/>
<path class="st2" d="M192.5,308.1h-3.4l-2.8-8.6h-11l-2.6,8.6h-3.4l10-30.8h3.2L192.5,308.1z M185.4,296.2l-4.1-13.1
	c-0.1-0.4-0.3-1.1-0.4-2.1h-0.1c-0.1,0.9-0.3,1.6-0.4,2.1l-4,13.1H185.4z"/>
<path class="st2" d="M220.3,295.6c0,8.7-3.3,13-9.9,13c-6.3,0-9.5-4.2-9.5-12.5v-18.8h3v18.6c0,6.3,2.2,9.5,6.7,9.5
	c4.3,0,6.5-3.1,6.5-9.2v-18.9h3v18.3H220.3z"/>
<path class="st2" d="M247.1,280.5h-7.5V308h-3v-27.5h-7.5v-3.3h18V280.5z"/>
<path class="st2" d="M273,277.3l-8.6,19.4v11.4h-3v-11.3l-8.3-19.5h3.5l5.8,13.9c0.1,0.2,0.3,0.8,0.6,1.9h0.1
	c0.1-0.5,0.4-1.1,0.7-1.9l6.1-13.9H273z"/>
<g>
	<g>
		<g>
			<path class="st3" d="M246.3,142.3c10.4-0.8,20.2,3.3,26.8,11.3c6.4,7.9,9.5,18.2,9.1,28.3c-0.3,10.4-4.2,20.3-10.8,28.3
				c-6.5,7.9-14.8,13.9-22.4,20.7c-8,7.1-15.6,15.4-18.5,25.9c-0.2,0.6,1.3,0.4,1.5-0.1c5.8-20.8,27.6-30.4,40.5-45.9
				c6.6-8,10.6-17.7,11.1-28.1c0.5-10.1-2.3-20.4-8.4-28.4c-3.4-4.5-7.7-8.1-12.9-10.3c-5-2.1-10.5-2.9-16-2.5
				C245.7,141.4,245.3,142.4,246.3,142.3L246.3,142.3z"/>
		</g>
	</g>
	<g>
		<g>
			<path class="st3" d="M269.6,249.7c-5.9-9.2-9.8-19.6-11.3-30.4c-1.6-11.7,0.4-23.1,1.5-34.7c1-10.6,0.9-21.7-4.1-31.3
				c-1.9-3.6-3.9-7.7-7.6-9.8c-3.9-2.2-8.7-1.2-12.7,0.2c-5.1,1.8-10.3,4.2-14.3,7.9s-5.7,8.7-5.8,14.1c0,0.6,0.9,0.6,1.2,0.3
				c2.7-2.4,5.8-4.2,9.3-5.1c1.7-0.4,3.5-0.6,5.3-0.4c1.2,0.1,4.9,0.4,4.4,2.3c-0.7,2.4-3.7,0.7-5,0c-1.2-0.6-2.6-1.1-4-0.9
				c-2.6,0.5-3.4,3.2-2.1,5.4c2,3.2,6.9,2.6,9.9,4.2c0.6,0.3,1.6-0.6,0.8-1c-1.6-0.8-3.3-1.2-5.1-1.5c-1.9-0.4-4.1-1.1-4.6-3.2
				c-0.2-0.8-0.1-1.8,0.6-2.4c0.9-0.7,2.2-0.2,3.1,0.2c1.6,0.7,3,1.7,4.7,1.7c2.3,0,4.9-3.1,2.2-4.7c-2.7-1.6-6.8-1.4-9.8-0.8
				c-3.9,0.8-7.5,2.9-10.5,5.6c0.4,0.1,0.8,0.2,1.2,0.3c0.1-4.8,1.5-9.6,5-13s8-5.6,12.6-7.4c4.2-1.6,9.5-3.2,13.5-0.3
				c3.5,2.4,5.6,6.9,7.3,10.7c4.4,9.5,4.1,20.4,3,30.6c-1.1,10.8-2.8,21.5-1.5,32.4c1.4,11.3,5.4,22.2,11.5,31.8
				C268.6,251,270,250.4,269.6,249.7L269.6,249.7z"/>
		</g>
	</g>
	<g>
		<g>
			<path class="st3" d="M246.3,142.2c0-1.8-0.6-4-1.9-5.3c-1.6-1.6-4.3-2-6.5-2.3c-4.4-0.6-9,0-13.2,1.4c-9.1,3.2-16,10.7-18,20.1
				c-1.2,5.5-0.6,11.2,1.8,16.3c0.2,0.3,1.6-0.2,1.4-0.4c-3.8-8.2-2.9-17.9,2.1-25.5s14-12.1,23.1-11.5c2.5,0.2,5.4,0.5,7.4,2
				c1.6,1.2,2.3,3.7,2.3,5.6C244.9,142.7,246.3,142.6,246.3,142.2L246.3,142.2z"/>
		</g>
	</g>
	<g>
		<g>
			<path class="st3" d="M246.3,143c16.7,7.6,20.7,29.1,19.1,45.5c-1.7,17-10.2,33.3-25.1,42.3c-7.9,4.8-17.2,7.4-26.5,6.7
				c-0.7-0.1-1.5,1-0.5,1.1c17.1,1.2,33.9-7.9,43.5-21.9c10.2-14.9,13-34.9,8.1-52.2c-2.7-9.5-8.5-18.4-17.8-22.6
				C246.5,141.7,245.4,142.6,246.3,143L246.3,143z"/>
		</g>
	</g>
	<g>
		<g>
			<path class="st3" d="M246.2,142.2c-5.8-2.1-13.5-3.1-19.2-0.2c-5.6,2.9-8.1,9.7-9.8,15.3c-0.2,0.5,1.3,0.3,1.5-0.2
				c1.5-5,3.7-11.2,8.4-14.2c2.5-1.6,5.8-1.9,8.7-1.8c3.2,0.1,6.3,0.7,9.3,1.8C245.5,143,246.8,142.4,246.2,142.2L246.2,142.2z"/>
		</g>
	</g>
	<g>
		<g>
			<path class="st3" d="M244.9,143.4c2,16,2.6,32.1,4.6,48c2,16.2,3.4,34.3-5.8,48.8c-4.3,6.7-10.8,12.2-18.7,14.1
				c-0.9,0.2-0.6,1.2,0.3,1c6.8-1.7,12.7-5.8,17.1-11.2c4.9-6,7.7-13.5,9-21.1c1.5-8.6,1-17.4,0.1-26.1c-0.9-8.5-2-17.1-2.7-25.6
				c-0.8-9.4-1.4-18.9-2.6-28.3C246.3,142.4,244.8,142.7,244.9,143.4L244.9,143.4z"/>
		</g>
	</g>
	<g>
		<g>
			<path class="st3" d="M245.2,143.1c-2,1-3.2,3-3.7,5.2c-0.6,3,0.8,5.9,1.5,8.7c1.9,6.7,1.9,13.9,2.4,20.8c0.2,3.5,0.5,7,0.7,10.6
				c0.2,3.2,0.7,6.6,0.4,9.8c-0.3,3.1-1.6,5.8-3.6,8.2c-1.2,1.5-2.5,2.8-4.4,3.3c-1.9,0.4-3.9,0.4-5.8,0.5
				c-7.2,0.1-14.3,0.1-21.5,0.1c-3.1,0-6.8-0.2-8.8-3c-1.8-2.6,0.1-5.1,1.1-7.6c0.5-1.2,0.6-2.2,0.3-3.5c-0.2-1,0-1.9,0.3-2.9
				c0.4-1.5-1.3-3.5,0.4-4.7c0.8-0.5,1-0.8,1.3-1.8c0.4-1.2,1.4-2.5,0.9-3.8c-0.9-2.2-4.9-4-3.4-6.9c0.8-1.5,2.9-2.3,4.3-3
				c1.6-0.7,3.2-1.3,4.7-2c1.1-0.5,2.3-1,3.1-1.9s1.3-1.9,1.9-2.9c0.3-0.5,0.7-0.9,1.1-1.3c0.5-0.6,0.1,0,0-0.1
				c0.3,0.2,0.5,0.5,0.6,0.8c0.4,0.8,0.7,1.8,1.5,2.3s1.9,0.7,2.8,1c0.9,0.3,1.8,0.7,2.8,1c2,0.7,4,1.5,6,2.2
				c0.1-0.1,0.2-0.2,0.3-0.3c-4.1,2.1-8.9,1.7-12.8-0.5c0,0.1-0.1,0.2-0.1,0.3c1.6-0.9,3.1-1.8,4.7-2.7c0.6-0.3-0.8-0.2-1.1,0
				c-1.6,0.9-3.1,1.8-4.7,2.7c-0.1,0-0.3,0.2-0.1,0.3c4.6,2.6,10.3,2.6,15,0.2c0,0,0.5-0.3,0.3-0.3c-3.7-1.3-7.4-2.6-11.1-4
				c-1.1-0.4-1.3-1.3-1.9-2.3c-0.4-0.7-0.8-1.2-1.7-1.1c-1.9,0.2-2.8,2-3.7,3.5c-0.6,1-1.2,1.8-2.2,2.4c-1.7,0.9-3.5,1.6-5.3,2.4
				c-1.9,0.8-5.5,2.1-5.9,4.5c-0.2,1.2,0.4,2.5,1.2,3.5c1,1.2,2.9,2.3,2.5,4.1c-0.1,0.6-0.5,1.2-0.8,1.8c-0.3,0.7-0.3,1.5-0.9,1.9
				c-0.7,0.5-1.2,0.7-1.4,1.7c-0.2,1.1,0.4,1.9,0.5,2.9c0,0.9-0.6,1.9-0.6,2.8c0,0.9,0.5,1.6,0.4,2.6c-0.2,1.7-1.3,3.1-1.9,4.6
				c-1.1,2.8,0.1,5.3,2.7,6.6c2.8,1.5,6.3,1.2,9.3,1.2c3.9,0,7.8,0,11.7,0c3.6,0,7.2,0.1,10.8-0.1c2.9-0.2,5.6-0.8,7.8-2.9
				c2.1-2.1,3.8-4.7,4.5-7.6c0.8-3.2,0.4-6.5,0.1-9.8c-0.6-8.6-1-17.2-1.9-25.7c-0.2-2-0.5-4-1-6c-0.4-2-1.1-3.9-1.7-5.8
				c-0.8-3.1-0.6-7.7,2.7-9.4C246.9,142.9,245.5,143,245.2,143.1L245.2,143.1z"/>
		</g>
	</g>
	<g>
		<g>
			<path class="st3" d="M183.8,257.5c9.5-2.1,19.3-4.7,27.1-10.9c6.8-5.5,11.9-13.2,14.4-21.6c1.4-4.7,2-9.6,1.8-14.6
				c0-0.2-1.5,0-1.4,0.4c1,17.1-9,34.2-24.8,41.2c-5.3,2.4-11,3.8-16.7,5C183.5,257.1,182.8,257.7,183.8,257.5L183.8,257.5z"/>
		</g>
	</g>
	<g>
		<g>
			<path class="st3" d="M198.1,258.9c11.3-13.5,18.2-30.5,19.4-48.1c0.1-0.8-1.4-0.6-1.5,0.1c-1.2,17.4-8,34.2-19.2,47.6
				C196.3,259.1,197.7,259.4,198.1,258.9L198.1,258.9z"/>
		</g>
	</g>
	<path class="st4" d="M224,168.7l8.1,3.2c0,0-6.5,2.8-12.6-0.3L224,168.7z"/>
	<g>
		<g>
			<path class="st3" d="M204.6,188.5c0.8-0.6,1.7-1.2,2.8-1c1,0.2,1.8,0.7,2.6,1.3c0.3,0.3,0.7,0.5,1,0.8c0.3,0.4,0.6,0.9,0.8,1.3
				c0.6,0.9,1.4,1.8,2.2,2.6c0-0.1,0-0.1,0-0.2c-2,3.2-5.8,4.9-9.5,4c-0.3-0.1-0.9,0.3-0.4,0.4c4.1,0.9,8.4-0.8,10.6-4.4
				c0,0,0-0.1,0-0.2c-0.9-0.9-1.8-1.9-2.5-3c-0.3-0.5-0.6-0.9-1-1.3c-0.4-0.3-0.8-0.6-1.2-0.9c-0.8-0.5-1.9-1-3-1s-2,0.6-2.8,1.2
				C203.8,188.5,204.4,188.7,204.6,188.5L204.6,188.5z"/>
		</g>
	</g>
	<g>
		<g>
			<path class="st3" d="M204.2,193.6c0.7-0.7,1.8-0.5,2.6-0.1c0.8,0.3,1.6,0.8,2.5,0.9c1.5,0.2,3.3-0.2,4.6-0.9
				c0.4-0.2,0-0.7-0.3-0.5c-1.6,0.9-3.5,1.2-5.2,0.5c-1.5-0.6-3.4-1.5-4.8-0.1C203.3,193.7,203.9,193.9,204.2,193.6L204.2,193.6z"/>
		</g>
	</g>
	<g>
		<g>
			<path class="st3" d="M148,172.1c-12,8-23.3,17.8-30.2,30.6c-6.6,12.2-9.8,28.8-2,41.3c3.7,6,9.7,10.4,16.5,12.3
				c0.4,0.1,1.7-0.5,1.2-0.6c-6-1.6-11.4-5.3-15.1-10.4c-4.3-5.8-5.8-13.1-5.6-20.2c0.5-14.3,7.9-27.4,17.6-37.5
				c5.6-5.8,12-10.8,18.8-15.2C149.8,171.9,148.4,171.9,148,172.1L148,172.1z"/>
		</g>
	</g>
	<g>
		<g>
			<path class="st3" d="M149.9,172.1c1-1.2,0.9-2.9,0.1-4.2c-0.9-1.4-2.6-2.1-4.2-2.3c-3.5-0.5-7.2,0.4-10.3,1.8
				c-7.2,3.2-12.3,9.5-15.5,16.6c-1.8,4.1-3.1,8.4-4.1,12.7c-1.1,4.5-2.2,9.1-2.5,13.8c-0.3,4.5,0.7,8.6,2.7,12.6
				c2,3.9,4.5,7.4,6.8,11.1c2.2,3.5,4.8,6.9,6.9,10.5c2.4,4,4.3,8.3,5.4,12.8c0.1,0.4,1.6,0,1.4-0.4c-1.8-7.2-5.6-13.1-9.7-19.2
				c-2.1-3-4.1-6.2-6-9.3c-2.1-3.3-4.2-6.7-5.4-10.5c-1.3-4.2-1-8.6-0.2-12.9c0.7-4.1,1.7-8.3,2.8-12.3c2.1-7.5,5.2-15.1,11.1-20.5
				c3.1-2.8,6.8-5.1,11-5.9c2.2-0.4,4.9-0.7,7,0.6c1.7,1,2.7,3.4,1.4,5.1C148.2,172.6,149.6,172.4,149.9,172.1L149.9,172.1z"/>
		</g>
	</g>
	<g>
		<g>
			<path class="st3" d="M151.6,257.2c0-7-5.6-12-11-15.6c-3.2-2.2-6.5-4.2-9.2-6.9c-2.5-2.5-4.7-5.4-6.3-8.5
				c-3.4-6.5-4.8-13.9-4.5-21.2c0.4-7.5,2.5-15.5,6.2-22c2.1-3.6,5-6.6,8.9-8.1c4-1.5,8.4-1.6,12.7-1.7c0.5,0,1.5-0.9,0.6-0.8
				c-7,0.2-14.6,0.6-19.9,5.8c-2.5,2.4-4.2,5.4-5.5,8.5c-1.6,3.8-2.9,7.7-3.7,11.8c-2.9,14.8,1.3,30.9,13.9,40.1
				c6.5,4.8,16.3,9.5,16.2,18.9C150.1,257.9,151.6,257.6,151.6,257.2L151.6,257.2z"/>
		</g>
	</g>
	<g>
		<g>
			<path class="st3" d="M158.3,256.7c-3.1-5.1-7-9.5-10.7-14.2s-7-9.8-9.1-15.5c-4.3-11.7-2.6-24.7,1.7-36.1
				c2.4-6.5,5.7-12.6,9.1-18.6c0.4-0.6-1.1-0.6-1.4-0.1c-6.2,10.7-11.7,22.1-13.1,34.5c-0.7,6.1-0.3,12.4,1.4,18.3
				c1.7,5.7,4.7,11,8.2,15.7c4.1,5.6,8.8,10.6,12.4,16.5C157.3,257.8,158.7,257.3,158.3,256.7L158.3,256.7z"/>
		</g>
	</g>
	<g>
		<g>
			<path class="st3" d="M147.3,173.4c-9.7,8.9-17.6,19.9-19.8,33.2c-2.2,13.2-0.6,28.3,7.4,39.4c3.9,5.3,9.2,9.5,15.4,11.7
				c0.5,0.2,1.7-0.5,0.9-0.8c-11.9-4.1-19.3-15.6-21.9-27.5c-2.8-13.1-1.3-27.7,5.5-39.4c3.6-6.1,8.4-11.5,13.6-16.3
				C149.1,173.1,147.7,173,147.3,173.4L147.3,173.4z"/>
		</g>
	</g>
	<g>
		<g>
			<path class="st3" d="M146.8,172.7c1,7.1,0.8,14.3-0.5,21.4c-1.1,6.1-2.6,12.6-0.2,18.6c1.9,4.5,6.5,8.3,11.5,6.6
				c2.1-0.7,4-2.2,4.5-4.4c0.5-2.3-0.6-4.7-2.4-6c-4.2-3.1-10.1-0.6-13.1,2.9c-3.7,4.4-5.4,10.9-4.3,16.5c1.1,5.4,4.9,10,10.2,11.5
				c2.8,0.8,5.6,0.9,8.5,0.9c3.6,0,7.2,0.1,10.8,0.1c3.8,0,7.7,0.3,11.6,0.1c2.6-0.1,5.5-0.9,6.9-3.3c0.7-1.2,0.8-2.5,0.2-3.7
				c-0.6-1.1-1.6-1.8-2.3-2.8c-1.2-1.7-0.3-3.3-0.1-5.2c0.1-1.2-0.2-2.3-1.3-2.8c-0.2,0.2-0.5,0.5-0.7,0.7c1.3-0.2,2.2-1,2.4-2.3
				c0.2-1.5-0.5-2.5-1.8-3.1c-1-0.5-1.9-0.9-2.5-1.9c-0.5-0.8-0.7-1.9-0.4-2.9c0.5-1.8,2.6-2.6,3.8-3.9c2.2-2.3-2.7-4.3-4.2-5.2
				c-1.8-1-3.5-2.1-5.4-2.9c-1.9-0.8-3.7-2.3-3.7-4.5c-0.2,0.1-0.3,0.3-0.5,0.4c1-0.3,1.7-1.1,1.6-2.2c0-1.5-1.4-2.8-2.3-3.9
				c-2.4-3-4.7-6-7.2-8.9c-4.5-5.1-10.2-9.7-17.2-10.2c-0.4,0-1.7,0.7-0.9,0.7c6.2,0.5,11.4,4.3,15.6,8.7c2.1,2.3,4,4.7,5.9,7.1
				c0.8,1,6.8,7.2,3.9,8.2c-0.2,0.1-0.4,0.2-0.5,0.4c0,3.9,4.4,4.7,7.1,6.3c1.4,0.8,2.7,1.6,4.1,2.4c0.9,0.5,3.1,1.6,2.7,3
				c-0.2,0.7-1.3,1.3-1.8,1.7c-0.6,0.5-1.2,0.9-1.7,1.5c-1,1.1-1.2,2.5-0.7,3.9c0.6,1.5,1.7,2.1,3.1,2.8c0.8,0.4,1.3,0.9,1.5,1.8
				c0.1,0.5,0.1,2.2-0.7,2.3c-0.2,0-1.2,0.4-0.7,0.7c2.5,1.1,0,4.8,0.6,6.7s2.8,2.8,3.2,4.8c0.2,1.2-0.2,2.4-1,3.2
				c-1.2,1.4-3.1,1.7-4.8,1.7c-2.9,0.1-5.8,0-8.7-0.1c-5.7-0.1-11.6,0.2-17.3-0.3c-5.2-0.4-9.6-2.6-12.2-7.3
				c-2.5-4.5-2.5-9.9-0.8-14.7c1.7-4.7,5.9-11,11.8-9.2c2.2,0.7,3.9,2.6,4.3,4.9c0.4,2.4-1.3,4.7-3.6,5.4c-2.5,0.7-5.2-0.7-7-2.4
				c-1.8-1.8-2.9-4.1-3.4-6.6c-1.4-6.1,0.4-12.2,1.3-18.2c1-6.4,1-12.8,0.1-19.2C148.2,171.9,146.8,172.3,146.8,172.7L146.8,172.7z"
				/>
		</g>
	</g>
	<g>
		<g>
			<path class="st3" d="M174.1,197.5c-1.9-3.3-5-6.1-8.8-7.1c-3.5-0.9-7.5-0.1-10.2,2.3c-1.2,1-2.6,2.7-2.3,4.4
				c0.4,1.8,2.6,1.7,4,1.4c2.3-0.6,4.6-1.6,6.9-2.4c1.2-0.4,2.7-1,3.9-0.2c1.1,0.7,1.4,2.2,0.1,3c-0.7,0.4-1.6,0.4-2.4,0.5
				c-0.6,0.1-1.2,0.2-1.7,0.3c-1.1,0.2-2.1,0.6-3.1,1c-2.2,1-4.1,2.4-5.6,4.1c-0.2,0.3,0.2,0.4,0.4,0.4c1.8,0,3.5-0.7,4.6-2.1
				c-0.5,0-0.9,0.1-1.4,0.1c-0.2,0.9-0.3,1.8-0.5,2.7c-0.1,0.5,1.2,0.1,1.4-0.1c0.2-0.3,0.4-0.7,0.7-0.9c0.4-0.4,1-0.7,1.5-0.3
				c0.1,0.1,0.3,0.3,0.4,0.4c0.5,0.4,1,0.5,1.6,0.5c1.1-0.1,2.3-1,2.1-2.2c-0.5,0.2-0.9,0.3-1.4,0.5c0.3,0.3,0.7,0.9,1.1,1
				c0.4,0.1,1-0.1,1.3-0.3c0.4-0.2,0.7-0.5,0.9-0.8c0.1-0.2,0.6-1.6,0.8-1.4c0.3,0.3,1.7-0.2,1.4-0.5c-0.7-0.8-0.6-2.6,0.6-2.9
				c1.1-0.3,2.1-0.2,3.1-0.7c0.8-0.5-0.4-0.6-0.9-0.4c-0.7,0.4-1.7,0.3-2.4,0.5c-0.6,0.1-1.2,0.4-1.6,0.8c-0.8,0.9-0.9,2.3-0.1,3.2
				c0.5-0.2,0.9-0.4,1.4-0.5c-0.6-0.6-1.6-0.4-2.2,0c-0.4,0.2-0.6,0.5-0.8,0.9c-0.1,0.3-0.5,1.5-0.8,1.5c0.2,0,0.4,0.1,0.6,0.1
				c-0.3-0.3-0.6-0.6-0.9-1c-0.3-0.3-1.5,0-1.4,0.5s-0.1,1.2-0.8,0.9c-0.3-0.1-0.5-0.5-0.8-0.7c-0.5-0.3-1-0.3-1.5-0.3
				c-1.4,0.2-2.3,1.1-3.1,2.3c0.5,0,0.9-0.1,1.4-0.1c0.2-0.9,0.3-1.8,0.5-2.7c0.1-0.6-1.2-0.1-1.4,0.1c-0.7,0.8-1.6,1.3-2.7,1.3
				c0.1,0.1,0.3,0.2,0.4,0.4c1.4-1.6,3.2-2.9,5.1-3.7c0.9-0.4,1.9-0.7,2.9-0.9s2.1-0.2,3-0.4c1.3-0.3,3-1.3,2.8-2.9
				c-0.3-1.7-2.3-2.3-3.7-2.1c-2.1,0.2-4.3,1.2-6.3,1.9c-1.4,0.5-5.1,2.5-5.7,0.2c-0.5-1.9,1.6-3.8,2.9-4.7c1.6-1,3.6-1.5,5.5-1.3
				c4.3,0.4,7.9,3.5,10,7.1C172.9,198.3,174.3,197.8,174.1,197.5L174.1,197.5z"/>
		</g>
	</g>
	<g>
		<g>
			<path class="st3" d="M188.2,220.8c-0.7-1-1.6-2.2-2.9-2.4c-1.2-0.1-2.6,0.6-3.5,1.3c-0.5,0.3-0.9,0.7-1.2,1.2
				c-0.4,0.5-0.7,1.1-1,1.7c-0.5,0.8-1.2,1.4-1.9,2.1c-0.1,0.1-0.1,0.2,0,0.3c1,1,2.1,1.9,3.4,2.5c1,0.5,2,0.8,3,0.8
				c1.1,0,2.2-0.3,3.2-0.5c0.4-0.1,0.3-0.6-0.1-0.5c-0.9,0.2-1.9,0.5-2.8,0.5c-1.1,0-2.1-0.4-3.1-0.8c-1.1-0.6-2.1-1.4-2.9-2.3
				c0,0.1,0,0.2,0,0.3c0.5-0.5,1.1-1,1.5-1.6c0.7-0.8,1.1-1.9,1.9-2.7c0.8-0.8,2-1.6,3.1-1.7c1.3-0.1,2.2,1.3,2.8,2.2
				C187.7,221.4,188.4,221.1,188.2,220.8L188.2,220.8z"/>
		</g>
	</g>
	<g>
		<g>
			<path class="st3" d="M178.5,225.1c0.6-0.4,1.4-0.4,2-0.4c0.7-0.1,1.4-0.1,2-0.3c0.7-0.2,1.4-0.5,2.1-0.6c0.5-0.1,1.3-0.2,1.7,0.2
				c0.2,0.2,0.8-0.1,0.7-0.3c-0.4-0.4-1.2-0.4-1.8-0.4c-0.8,0.1-1.6,0.3-2.5,0.6s-1.7,0.4-2.6,0.4c-0.8,0.1-1.6,0.2-2.2,0.7
				c-0.1,0.1-0.1,0.2,0.1,0.2C178.1,225.3,178.3,225.2,178.5,225.1L178.5,225.1z"/>
		</g>
	</g>
	<path class="st4" d="M156,204.2c0,0,4.3-4.3,12.1-4.9l0.5,2l-1.6,1.4l-0.6,1.2l-1,0.2l-0.8,0.4l-1.5,0.4l-1.2-0.3l-1.1-0.6
		l-0.9,0.4H159l-0.4-0.7l-0.8,0.6l-1.4,0.4L156,204.2z"/>
	<g>
		<g>
			<path class="st3" d="M183.1,69.2c5.7,9.9,5.3,21.8,3,32.7c-2.4,11.8-7.1,23.1-8.7,35.1c-0.8,5.8-0.7,11.5,0.4,17.2
				c1,5.3,2.7,10.5,4.6,15.6c3.9,10.4,8.6,20.8,9.8,32c0.7,6.9-0.1,13.9,1.4,20.7c1.2,5.3,3.9,10.5,8.7,13.3
				c0.4,0.2,1.6-0.4,1.4-0.5c-10.3-6.1-9.4-19.7-9.8-30c-0.5-11.4-4.6-21.8-8.7-32.3c-4.1-10.6-7.6-21.4-6.7-33
				c1-12.2,5.6-23.6,8.4-35.4c2.8-11.7,3.8-24.9-2.4-35.7C184.3,68.4,182.9,68.9,183.1,69.2L183.1,69.2z"/>
		</g>
	</g>
	<g>
		<g>
			<path class="st3" d="M163,179.3c-1.5-10.4-3-21.4-1-31.9c1-5,2.7-9.9,5.6-14.1c2.5-3.6,5.8-6.5,9-9.5c3.4-3.2,6.7-6.8,8.1-11.4
				c0.1-0.4-1.3-0.2-1.4,0.2c-2.6,8.6-11.4,13.1-16.5,20c-6,8.3-7.4,18.8-7.1,28.7c0.2,6.1,0.9,12.2,1.8,18.3
				C161.6,180.1,163.1,179.8,163,179.3L163,179.3z"/>
		</g>
	</g>
	<g>
		<g>
			<path class="st3" d="M183.4,69.3c0.5,7.6,1.4,15.3,0.7,23c-0.4,3.9-1.2,7.7-2.6,11.4c-1.4,3.6-3.3,6.9-5.3,10.2
				c-7.8,12.5-17.2,24.6-20.1,39.4c-1.6,7.8-1.3,16,1.9,23.4c0.3,0.7,1.7,0.2,1.4-0.4c-6-13.9-1.5-29.3,5.4-41.9
				c3.6-6.6,8-12.8,12-19.2c4-6.3,7.3-12.9,8.4-20.3c1.3-8.5,0.3-17.1-0.3-25.7C184.9,68.5,183.4,68.7,183.4,69.3L183.4,69.3z"/>
		</g>
	</g>
	<g>
		<g>
			<path class="st3" d="M149.2,167.1c-5.8-12.8-5.4-27.9,0.1-40.8c3-6.9,7.5-12.6,12.8-17.8c5.5-5.4,11.5-10.3,16.1-16.5
				c4.8-6.6,8.2-14.9,6.2-23.2c-0.1-0.3-1.5,0-1.4,0.4c1.9,7.5-0.8,15.1-4.9,21.3c-4.4,6.6-10.6,11.7-16.2,17.2
				c-5.2,5-9.9,10.5-13,17.1c-3,6.2-4.7,13-5,19.9c-0.4,7.8,0.9,15.6,4.1,22.7C147.9,167.8,149.3,167.3,149.2,167.1L149.2,167.1z"/>
		</g>
	</g>
	<g>
		<g>
			<path class="st3" d="M184.1,69.3c10.4-2.3,23.7-4.1,30.4,6.4c2.1,3.3,3.1,7.2,3.6,11.1c0.6,4.8,0.5,9.5-0.8,14.1
				c-1.1,3.8-2.8,7.5-5.1,10.7c-0.4,0.5,1.1,0.4,1.3,0c2.1-2.9,3.7-6.2,4.8-9.6c1.6-4.9,1.9-9.9,1.3-15c-0.4-3.9-1.4-7.9-3.4-11.3
				c-2.7-4.6-7.3-7.6-12.5-8.6c-6.5-1.2-13.3,0.1-19.7,1.5C183,68.8,183.2,69.5,184.1,69.3L184.1,69.3z"/>
		</g>
	</g>
	<g>
		<g>
			<path class="st3" d="M184.6,71.4c5.4,0.2,11,2.3,15.3,5.5c7.9,5.7,11.7,15.2,10.9,24.8c-0.2,2.6-0.7,5.3-1.7,7.7
				c-0.1,0.2,1.3,0.1,1.4-0.3c2.4-6.1,2.5-13.5,0.3-19.7c-2.9-8.5-10-14.8-18.6-17.3c-2.2-0.7-4.5-1.1-6.8-1.2
				C185.3,70.8,184,71.3,184.6,71.4L184.6,71.4z"/>
		</g>
	</g>
	<g>
		<g>
			<path class="st3" d="M185.2,71.8c3.1,1.9,6,4.1,8.6,6.6c3.7,3.7,7.2,8.7,7.7,14.1c0.3,2.8-0.4,5.5,0.6,8.2
				c0.8,2.2,2.3,4.2,3.9,5.9c2.1,2.2,4.3,4.2,6.5,6.2c0.9,0.9,3,2.2,3.1,3.7c0.1,1-1.1,1.3-1.7,1.9c-1.1,0.9-1.7,2.3-1.9,3.8
				c-0.2,1.1,0.1,2.2,0.5,3.3c0.2,0.5,0.4,1,0.3,1.6c-0.2,0.9-1,1.7-1.7,2.2c-0.1,0.1-0.3,0.2-0.1,0.3c0.6,0.4,1.4,1,1.4,1.9
				c0,0.7-0.5,1.3-0.9,1.8c-0.8,1.2-1,2.1-0.5,3.5c0.3,0.7,0.7,1.5,0.9,2.3c0.2,1-0.2,2.2-0.5,3.2c-0.6,1.7-1.7,2.9-3.4,3.6
				c-3.4,1.4-7.3,0.7-10.7-0.3s-7.2-2.7-10.8-1.7s-6.5,3.9-8.9,6.6c-0.3,0.4,1.1,0.2,1.3-0.1c2.5-2.8,5.9-6.6,10.1-6.1
				c4.2,0.6,8.2,2.6,12.5,2.9c2.8,0.2,6-0.2,8.4-1.7c2.7-1.6,4.3-5.2,3-8.2c-0.4-0.8-0.9-1.7-0.7-2.7c0.1-0.8,0.6-1.3,1-2
				c1-1.5,0.6-2.6-0.9-3.6c0,0.1-0.1,0.2-0.1,0.3c0.8-0.6,1.8-1.5,2-2.6c0.2-1-0.5-2-0.7-2.9c-0.3-1.2-0.1-2.5,0.4-3.7
				c0.3-0.8,0.8-1.5,1.5-2c0.4-0.3,0.9-0.5,1.3-0.9c0.9-1,0.1-2.1-0.6-2.9c-1.8-2-3.9-3.7-5.9-5.5c-2-1.9-4-3.8-5.5-6.2
				c-1.6-2.5-1.8-5-1.7-7.9c0.2-5.7-2.4-11-6.2-15.2c-2.9-3.3-6.5-6.1-10.3-8.4C186.2,71,184.9,71.6,185.2,71.8L185.2,71.8z"/>
		</g>
	</g>
	<g>
		<g>
			<path class="st3" d="M195.5,145.9c0.4,5.8-3.8,10.9-6.8,15.6c-3.3,5.2-6.7,10.4-10,15.6c-0.4,0.6,1.1,0.6,1.4,0.1
				c3.5-5.5,7.1-10.9,10.6-16.4c3-4.6,6.7-9.5,6.3-15.2C196.9,144.9,195.4,145.2,195.5,145.9L195.5,145.9z"/>
		</g>
	</g>
	<g>
		<g>
			<path class="st3" d="M194.1,145.2c-4,8.3-11.1,15.6-19.4,19.6c-0.9,0.4,0.5,0.3,0.8,0.1c8.5-4.2,15.8-11.5,20-20
				C195.7,144.8,194.3,144.8,194.1,145.2L194.1,145.2z"/>
		</g>
	</g>
	<g>
		<g>
			<path class="st3" d="M201,147.4c-2.3,8.3-0.1,17.5,5.8,23.8c0.4,0.4,1.8-0.1,1.3-0.6c-5.8-6.2-7.9-15.2-5.6-23.4
				C202.6,146.6,201.1,146.8,201,147.4L201,147.4z"/>
		</g>
	</g>
	<g>
		<g>
			<path class="st3" d="M199.8,97.9c-4.4-2.9-10.2-3.3-15-1c-0.9,0.4-0.1,1.2,0.6,0.8c4.2-2,9.3-1.6,13.2,1
				C199.2,99.1,200.5,98.4,199.8,97.9L199.8,97.9z"/>
		</g>
	</g>
	<g>
		<g>
			<path class="st3" d="M185.7,106.6c5,2.2,10.7,2.2,15.7,0.1c-0.3,0-0.6-0.1-0.9-0.1c-0.3,0.4-0.6,0.8-0.9,1.3
				c-0.1,0.2,0,0.2,0.2,0.3c1,0.1,2.1,0.3,3.1,0.4c0.3-0.2,0.6-0.4,0.9-0.6c-1.2-0.1-2.4-0.2-3.6-0.2c-0.2,0-1.4,0.2-1.1,0.6
				c0.6,0.6,1.1,1.3,1.7,1.9c0.5-0.2,0.9-0.3,1.4-0.5c-1.2-0.6-2.4-1.2-3.6-1.8c-0.3-0.1-1.4,0-1.4,0.4c0,0.5,0,1-0.2,1.4
				c-0.3,0.7-0.6,0.5-1,0.1c-0.5-0.6-0.8-1-1.6-1c-0.5,0-1.1,0.2-1.4,0.6c-0.2,0.4-0.1,0.8,0.3,0.9c0.2,0,1.6-0.3,1.3-0.5
				c-2.4-1.7-5.2-2.8-7.9-3.8c-0.3-0.1-1.6,0.4-1.2,0.6c2.7,1,5.4,2.1,7.7,3.7c0.4-0.2,0.8-0.4,1.3-0.5c-0.2,0-0.2-0.4,0-0.5
				c-0.2,0.1-0.5,0.2-0.7,0.3c0.4-0.1,1.1,1.2,1.4,1.4c0.5,0.2,1.1,0.1,1.6,0c1.4-0.4,1.8-1.5,1.7-2.9c-0.5,0.1-0.9,0.3-1.4,0.4
				c1.2,0.6,2.4,1.2,3.6,1.8c0.3,0.1,1.7-0.2,1.4-0.5c-0.6-0.6-1.1-1.3-1.7-1.9c-0.4,0.2-0.8,0.4-1.1,0.6c1.2,0.1,2.4,0.2,3.6,0.2
				c0.3,0,1.7-0.5,0.9-0.6c-1-0.1-2.1-0.3-3.1-0.4c0.1,0.1,0.1,0.2,0.2,0.3c0.3-0.4,0.6-0.8,0.9-1.3c0.3-0.4-0.8-0.2-0.9-0.1
				c-4.4,1.9-9.5,1.8-13.9-0.2c-0.3-0.1-0.7,0-0.9,0.1C186,106.2,185.4,106.5,185.7,106.6L185.7,106.6z"/>
		</g>
	</g>
	<g>
		<g>
			<path class="st3" d="M191.9,108.9c1.5,0.5,3.1,0.6,4.7,0.2c-0.3-0.2-0.6-0.3-0.9-0.5c0,0.4-0.1,0.9-0.1,1.3
				c0.4-0.2,0.9-0.3,1.3-0.5c-0.2-0.2-0.4-0.4-0.6-0.5c-0.1-0.1-0.2-0.2-0.2-0.2l-0.1-0.1c-0.1-0.1-0.2,0-0.3,0.2
				c0.1,0.1,0.5,0.1,0.6,0.1c0.3,0,0.5,0,0.8,0c1,0,2-0.4,2.9-1c0.2-0.1,0.3-0.5,0.2-0.7c-0.2-0.2-0.5-0.3-0.8-0.2
				c-0.7,0.2-1.4,0.3-2.2,0.5c-0.3,0.1-0.7,0.4-0.6,0.7c0.1,0.4,0.6,0.4,0.9,0.3c0.7-0.2,1.4-0.3,2.2-0.5c-0.2-0.3-0.4-0.6-0.6-0.9
				c-0.4,0.3-0.9,0.5-1.5,0.5c-0.3,0-0.6,0-0.9,0c-0.3,0-0.6-0.1-0.9-0.1c-0.6,0-1.5,0.5-1.3,1.2c0.1,0.3,0.3,0.5,0.5,0.7
				s0.5,0.5,0.7,0.7c0.4,0.3,1.3,0,1.3-0.5c0-0.4,0.1-0.9,0.1-1.3c0-0.5-0.5-0.6-0.9-0.5c-1.2,0.3-2.4,0.2-3.5-0.2
				c-0.3-0.1-0.8,0-1,0.3C191.4,108.4,191.5,108.7,191.9,108.9L191.9,108.9z"/>
		</g>
	</g>
	<g>
		<g>
			<path class="st3" d="M212.7,124.9c-1.3,0.1-2.5,0.3-3.6,0.9c-0.8,0.5-1.4,1.2-2,1.8c-0.3,0.3-0.7,0.7-1,1c-0.4,0.3-1,0.5-1.4,0.9
				c-0.6,0.5,0,1.2,0.3,1.6c0.4,0.6,1,1.1,1.5,1.6c1.3,1.1,2.9,1.7,4.5,2c0.4,0.1,0.7-0.5,0.2-0.5c-1.3-0.2-2.6-0.7-3.7-1.5
				c-0.5-0.4-1-0.8-1.5-1.3c-0.2-0.2-0.4-0.5-0.6-0.8c-0.1-0.1-0.2-0.2-0.2-0.4c-0.2-0.3,0-0.4,0.2-0.6c0.8-0.4,1.4-0.9,2-1.6
				c0.5-0.6,1-1.2,1.7-1.7c1-0.7,2.2-1,3.4-1C213,125.4,213.2,124.9,212.7,124.9L212.7,124.9z"/>
		</g>
	</g>
	<g>
		<g>
			<path class="st3" d="M204.9,130.2c0.9,0.3,1.9,0.3,2.8,0c1-0.4,2.2-1.3,3.3-0.7c0.2,0.1,0.4,0,0.5-0.1s0.2-0.2,0.1-0.3
				c-1.1-0.5-2.3-0.1-3.3,0.3c-0.5,0.2-1,0.5-1.5,0.6c-0.5,0-1-0.1-1.5-0.2C205.1,129.8,204.5,130.1,204.9,130.2L204.9,130.2z"/>
		</g>
	</g>
</g>
</svg>
